<svg width="28" height="28" viewBox="0 0 28 28" fill="none" xmlns="http://www.w3.org/2000/svg">
<g id="Group 38">
<path id="Vector" d="M14 27C21.15 27 27 21.15 27 14C27 6.85 21.15 1 14 1C6.85 1 1 6.85 1 14C1 21.15 6.85 27 14 27Z" stroke="#BA83DE" stroke-width="2" stroke-linecap="round" stroke-linejoin="round"/>
<g id="Group 31">
<path id="Vector_2" d="M14 27C21.15 27 27 21.15 27 14C27 6.85 21.15 1 14 1C6.85 1 1 6.85 1 14C1 21.15 6.85 27 14 27Z" fill="#BA83DE" stroke="black" stroke-width="1.5" stroke-linecap="round" stroke-linejoin="round"/>
<path id="Vector_3" d="M8.47487 14L12.1539 17.679L19.5249 10.321" stroke="black" stroke-width="1.5" stroke-linecap="round" stroke-linejoin="round"/>
</g>
</g>
</svg>
